<svg width="147" height="48" viewBox="0 0 147 48" fill="none" xmlns="http://www.w3.org/2000/svg">
<path d="M0 15.6362L20.3636 15.6362L20.3636 35.9999L-1.78025e-06 35.9999L0 15.6362Z" fill="#A0D6FA"/>
<path d="M7.27271 4H32V28.7273H19.6363C12.8081 28.7273 7.27271 23.1919 7.27271 16.3636V4Z" fill="#2F8DEB"/>
<path d="M7.27271 15.6362H20.3636V28.7271H19.5804C12.783 28.7271 7.27271 23.2168 7.27271 16.4194V15.6362Z" fill="white"/>
<path d="M49.982 28.319C46.415 28.319 43.399 25.245 43.399 21.388C43.399 17.531 46.415 14.457 49.982 14.457C53.259 14.457 55.55 17.067 56.072 19.648H53.201C52.911 18.575 51.867 17.154 49.982 17.154C47.923 17.154 46.27 18.894 46.27 21.388C46.27 23.911 47.923 25.651 49.982 25.651C51.867 25.651 52.911 24.201 53.201 23.128H56.072C55.55 25.709 53.259 28.319 49.982 28.319ZM63.2162 24.549L66.7252 14.776H69.6252L64.5212 28H61.7662L56.6332 14.776H59.6782L63.2162 24.549ZM76.1019 14.457C79.3209 14.457 81.3799 16.632 81.3799 19.822V28H79.2339L78.7119 26.521H78.5959C78.0449 27.188 76.7979 28.319 74.7099 28.319C72.1289 28.319 70.2729 26.55 70.2729 24.375C70.2729 21.736 72.7669 20.054 76.4209 20.054H78.5089V19.619C78.5089 18.024 77.5229 17.038 76.0729 17.038C74.6229 17.038 73.8979 17.966 73.7239 18.807H70.8819C71.0849 16.603 72.9119 14.457 76.1019 14.457ZM75.2899 25.912C77.2909 25.912 78.5089 24.52 78.5089 22.954V22.142H76.4209C74.1879 22.142 73.1439 22.925 73.1439 24.143C73.1439 25.158 73.8979 25.912 75.2899 25.912ZM87.4088 32.698H84.5378V14.776H86.6838L87.2058 16.255H87.3508C87.7278 15.791 89.1778 14.457 91.2948 14.457C94.5428 14.457 97.3848 17.357 97.3848 21.388C97.3848 25.419 94.5428 28.319 91.2948 28.319C89.2648 28.319 87.8438 27.072 87.5538 26.608H87.4088V32.698ZM90.9758 25.651C92.8608 25.651 94.5138 23.911 94.5138 21.388C94.5138 18.865 92.8608 17.154 90.9758 17.154C89.0618 17.154 87.4088 18.865 87.4088 21.388C87.4088 23.911 89.0618 25.651 90.9758 25.651ZM102.815 32.698H99.944V14.776H102.09L102.612 16.255H102.757C103.134 15.791 104.584 14.457 106.701 14.457C109.949 14.457 112.791 17.357 112.791 21.388C112.791 25.419 109.949 28.319 106.701 28.319C104.671 28.319 103.25 27.072 102.96 26.608H102.815V32.698ZM106.382 25.651C108.267 25.651 109.92 23.911 109.92 21.388C109.92 18.865 108.267 17.154 106.382 17.154C104.468 17.154 102.815 18.865 102.815 21.388C102.815 23.911 104.468 25.651 106.382 25.651ZM116.481 28.319C115.437 28.319 114.654 27.507 114.654 26.492C114.654 25.477 115.437 24.665 116.481 24.665C117.496 24.665 118.308 25.477 118.308 26.492C118.308 27.507 117.496 28.319 116.481 28.319ZM132.965 21.098C132.965 21.765 132.907 22.229 132.82 22.519H123.047C123.424 24.52 124.816 25.738 126.701 25.738C128.18 25.738 129.079 25.013 129.543 24.346H132.53C131.776 26.26 129.63 28.319 126.73 28.319C123.076 28.319 120.147 25.332 120.147 21.388C120.147 17.531 123.163 14.457 126.672 14.457C130.21 14.457 132.965 17.357 132.965 21.098ZM126.672 17.038C124.903 17.038 123.424 18.314 123.018 20.344H130.21C129.862 18.401 128.47 17.038 126.672 17.038ZM139.922 28.319C136.79 28.319 134.818 26.318 134.673 23.969H137.515C137.602 25.129 138.501 25.941 139.922 25.941C141.343 25.941 142.068 25.216 142.068 24.375C142.068 21.736 134.992 22.954 134.992 18.372C134.992 16.197 136.761 14.457 139.806 14.457C142.706 14.457 144.591 16.342 144.765 18.691H141.923C141.778 17.589 141.111 16.864 139.806 16.864C138.53 16.864 137.863 17.473 137.863 18.256C137.863 20.75 144.91 19.561 144.91 24.23C144.91 26.55 143.141 28.319 139.922 28.319Z" fill="#0F141E"/>
<path d="M80.41 45.165C79.315 45.165 78.565 44.49 78.37 44.235H78.31L78.04 45H76.93V35.55H78.415V38.88H78.475C78.64 38.64 79.375 37.995 80.41 37.995C82.105 37.995 83.56 39.495 83.56 41.58C83.56 43.665 82.105 45.165 80.41 45.165ZM80.245 43.785C81.235 43.785 82.075 42.885 82.075 41.58C82.075 40.275 81.235 39.39 80.245 39.39C79.255 39.39 78.415 40.275 78.415 41.58C78.415 42.885 79.255 43.785 80.245 43.785ZM87.3605 43.02L89.1005 38.16H90.6305L87.7955 45.375C87.1655 47.01 86.5055 47.505 85.6355 47.505C85.3355 47.505 85.0805 47.43 84.9005 47.37V46.02C85.0355 46.08 85.1855 46.11 85.3805 46.11C85.8905 46.11 86.2205 45.9 86.4455 45.24L86.6255 44.805L83.9255 38.16H85.5305L87.3605 43.02ZM97.4628 45.165C95.6178 45.165 94.0578 43.575 94.0578 41.58C94.0578 39.585 95.6178 37.995 97.4628 37.995C99.1578 37.995 100.343 39.345 100.613 40.68H99.1278C98.9778 40.125 98.4378 39.39 97.4628 39.39C96.3978 39.39 95.5428 40.29 95.5428 41.58C95.5428 42.885 96.3978 43.785 97.4628 43.785C98.4378 43.785 98.9778 43.035 99.1278 42.48H100.613C100.343 43.815 99.1578 45.165 97.4628 45.165ZM104.44 37.995C106.105 37.995 107.17 39.12 107.17 40.77V45H106.06L105.79 44.235H105.73C105.445 44.58 104.8 45.165 103.72 45.165C102.385 45.165 101.425 44.25 101.425 43.125C101.425 41.76 102.715 40.89 104.605 40.89H105.685V40.665C105.685 39.84 105.175 39.33 104.425 39.33C103.675 39.33 103.3 39.81 103.21 40.245H101.74C101.845 39.105 102.79 37.995 104.44 37.995ZM104.02 43.92C105.055 43.92 105.685 43.2 105.685 42.39V41.97H104.605C103.45 41.97 102.91 42.375 102.91 43.005C102.91 43.53 103.3 43.92 104.02 43.92ZM110.288 45H108.803V38.16H109.913L110.183 38.925H110.258C110.453 38.64 111.068 37.995 111.938 37.995C112.178 37.995 112.343 38.01 112.523 38.07V39.54C112.328 39.495 112.148 39.48 111.908 39.48C110.948 39.48 110.288 40.14 110.288 41.235V45ZM119.496 41.43C119.496 41.775 119.466 42.015 119.421 42.165H114.366C114.561 43.2 115.281 43.83 116.256 43.83C117.021 43.83 117.486 43.455 117.726 43.11H119.271C118.881 44.1 117.771 45.165 116.271 45.165C114.381 45.165 112.866 43.62 112.866 41.58C112.866 39.585 114.426 37.995 116.241 37.995C118.071 37.995 119.496 39.495 119.496 41.43ZM116.241 39.33C115.326 39.33 114.561 39.99 114.351 41.04H118.071C117.891 40.035 117.171 39.33 116.241 39.33ZM127.055 41.43C127.055 41.775 127.025 42.015 126.98 42.165H121.925C122.12 43.2 122.84 43.83 123.815 43.83C124.58 43.83 125.045 43.455 125.285 43.11H126.83C126.44 44.1 125.33 45.165 123.83 45.165C121.94 45.165 120.425 43.62 120.425 41.58C120.425 39.585 121.985 37.995 123.8 37.995C125.63 37.995 127.055 39.495 127.055 41.43ZM123.8 39.33C122.885 39.33 122.12 39.99 121.91 41.04H125.63C125.45 40.035 124.73 39.33 123.8 39.33ZM129.859 45H128.374V38.16H129.484L129.754 38.925H129.829C130.024 38.64 130.639 37.995 131.509 37.995C131.749 37.995 131.914 38.01 132.094 38.07V39.54C131.899 39.495 131.719 39.48 131.479 39.48C130.519 39.48 129.859 40.14 129.859 41.235V45ZM133.002 45.165C132.462 45.165 132.057 44.745 132.057 44.22C132.057 43.695 132.462 43.275 133.002 43.275C133.527 43.275 133.947 43.695 133.947 44.22C133.947 44.745 133.527 45.165 133.002 45.165ZM136.038 37.215C135.558 37.215 135.168 36.84 135.168 36.345C135.168 35.835 135.558 35.475 136.038 35.475C136.518 35.475 136.908 35.835 136.908 36.345C136.908 36.84 136.518 37.215 136.038 37.215ZM136.773 45H135.288V38.16H136.773V45ZM141.511 45.165C139.666 45.165 138.106 43.575 138.106 41.58C138.106 39.585 139.666 37.995 141.511 37.995C143.356 37.995 144.901 39.585 144.901 41.58C144.901 43.575 143.356 45.165 141.511 45.165ZM141.511 43.785C142.561 43.785 143.416 42.885 143.416 41.58C143.416 40.29 142.561 39.39 141.511 39.39C140.446 39.39 139.591 40.29 139.591 41.58C139.591 42.885 140.446 43.785 141.511 43.785Z" fill="#828BA2"/>
</svg>
